<mxfile host="app.diagrams.net" modified="2024-04-10T08:06:39.089Z" agent="Mozilla/5.0 (Macintosh; Intel Mac OS X 10_15_7) AppleWebKit/537.36 (KHTML, like Gecko) Chrome/123.0.0.0 Safari/537.36" version="24.2.3" etag="KKeeOHIJ7vJWJI0E6-IH" type="github">
  <diagram name="第 1 页" id="w00zjgysEMQ_pbVjgiSi">
    <mxGraphModel>
      <root>
        <mxCell id="0" />
        <mxCell id="1" parent="0" />
      </root>
    </mxGraphModel>
  </diagram>
</mxfile>
